<?xml version="1.0" standalone="no"?><!DOCTYPE svg PUBLIC "-//W3C//DTD SVG 1.1//EN" "http://www.w3.org/Graphics/SVG/1.1/DTD/svg11.dtd"><svg class="icon" width="200px" height="200.00px" viewBox="0 0 1024 1024" version="1.1" xmlns="http://www.w3.org/2000/svg"><path d="M957.607 674.186l-392.446-199.735 38.951-67.47 7.645 4.414c12.563 7.249 26.869 11.083 41.372 11.083 29.749 0 57.413-15.911 72.195-41.52 11.070-19.164 13.994-41.562 8.229-63.065-5.764-21.502-19.49-39.442-38.658-50.502l-313.371-180.93c-12.563-7.249-26.869-11.083-41.372-11.083-29.749 0-57.413 15.911-72.195 41.52-11.070 19.164-13.994 41.562-8.229 63.065s19.49 39.442 38.658 50.502l7.647 4.416-158.195 273.996-7.644-4.413c-12.563-7.253-26.869-11.088-41.376-11.088-29.746 0-57.409 15.907-72.192 41.514-11.070 19.167-13.994 41.562-8.229 63.065 5.764 21.502 19.49 39.442 38.658 50.502l313.372 180.933c12.563 7.249 26.869 11.083 41.372 11.083 29.749 0 57.413-15.907 72.195-41.514 22.922-39.698 9.277-90.647-30.427-113.572l-7.646-4.414 39.897-69.090 369.847 240.396c15.502 8.955 33.154 13.685 51.057 13.685 36.723 0 70.874-19.634 89.116-51.239 28.289-48.995 11.44-111.878-38.229-140.537zM957.606 674.186l-392.445-199.735 38.951-67.47 7.645 4.414c12.563 7.249 26.869 11.083 41.372 11.083 29.749 0 57.413-15.911 72.195-41.52 11.070-19.164 13.994-41.561 8.229-63.065-5.764-21.502-19.49-39.442-38.658-50.502l-313.371-180.93c-12.563-7.249-26.869-11.083-41.372-11.083-29.749 0-57.413 15.911-72.195 41.52-11.070 19.164-13.994 41.561-8.229 63.065s19.49 39.442 38.658 50.502l7.647 4.416-158.196 273.995-7.644-4.413c-12.563-7.253-26.869-11.088-41.375-11.088-29.746 0-57.409 15.907-72.192 41.514-11.070 19.167-13.994 41.562-8.229 63.065 5.764 21.502 19.49 39.442 38.658 50.502l313.372 180.933c12.563 7.249 26.869 11.083 41.372 11.083 29.749 0 57.413-15.907 72.195-41.514 22.922-39.698 9.277-90.647-30.427-113.572l-7.646-4.414 39.897-69.089 369.845 240.396c15.502 8.955 33.154 13.685 51.057 13.685 36.723 0 70.874-19.634 89.116-51.239 28.289-48.995 11.44-111.878-38.229-140.537zM459.147 784.609c-9.677 16.758-27.818 27.168-47.348 27.168-9.472 0-18.818-2.505-27.022-7.239l-313.372-180.933c-12.529-7.23-21.506-18.976-25.286-33.075-3.778-14.095-1.877-28.761 5.36-41.29 9.673-16.758 27.812-27.168 47.34-27.168 9.476 0 18.821 2.505 27.029 7.239l313.372 180.923c25.999 15.014 34.939 48.374 19.93 74.377zM287.447 172.538c-3.778-14.1-1.877-28.764 5.36-41.29 9.673-16.762 27.812-27.172 47.344-27.172 9.477 0 18.818 2.505 27.022 7.239l313.372 180.933c12.529 7.23 21.506 18.976 25.286 33.075 3.778 14.1 1.877 28.764-5.36 41.29-9.673 16.762-27.812 27.172-47.344 27.172-9.477 0-18.818-2.505-27.022-7.239l-313.372-180.933c-12.529-7.23-21.507-18.975-25.286-33.075zM970.987 800.377c-13.139 22.754-37.764 36.893-64.27 36.893-12.871 0-25.566-3.401-36.065-9.443l-394.562-256.491-54.084 93.675-248.385-143.404 157.258-272.379 248.384 143.409-54.081 93.669 418.746 213.093c35.299 20.383 47.439 65.68 27.060 100.979z" /></svg>